umbra-12.ufo
<glyph name="exclam" format="1">
  <advance width="291"/>
  <unicode hex="0021"/>
  <outline>
    <contour>
      <point x="-46" y="469" type="line"/>
      <point x="-76" y="749" type="line"/>
      <point x="84" y="749" type="line"/>
      <point x="54" y="469" type="line"/>
    </contour>
    <contour>
      <point x="4" y="221" type="line"/>
      <point x="-101" y="326" type="line"/>
      <point x="4" y="432" type="line"/>
      <point x="110" y="326" type="line"/>
    </contour>
  </outline>
</glyph>
<glyph name="dollar" format="1">
  <advance width="449"/>
  <unicode hex="0024"/>
  <outline>
    <contour>
      <point x="138" y="399" type="curve" smooth="yes"/>
      <point x="138" y="459"/>
      <point x="-95" y="462"/>
      <point x="-95" y="612" type="curve" smooth="yes"/>
      <point x="-95" y="691"/>
      <point x="-39" y="742"/>
      <point x="39" y="758" type="curve"/>
      <point x="24" y="819" type="line"/>
      <point x="164" y="819" type="line"/>
      <point x="149" y="758" type="line"/>
      <point x="195" y="746"/>
      <point x="237" y="719"/>
      <point x="274" y="677" type="curve"/>
      <point x="234" y="567" type="line"/>
      <point x="194" y="605"/>
      <point x="146" y="644"/>
      <point x="98" y="644" type="curve" smooth="yes"/>
      <point x="70" y="644"/>
      <point x="60" y="630"/>
      <point x="60" y="612" type="curve" smooth="yes"/>
      <point x="60" y="552"/>
      <point x="283" y="545"/>
      <point x="283" y="401" type="curve" smooth="yes"/>
      <point x="283" y="296"/>
      <point x="218" y="251"/>
      <point x="135" y="238" type="curve"/>
      <point x="151" y="174" type="line"/>
      <point x="11" y="174" type="line"/>
      <point x="27" y="238" type="line"/>
      <point x="-42" y="248"/>
      <point x="-94" y="278"/>
      <point x="-126" y="316" type="curve"/>
      <point x="-86" y="431" type="line"/>
      <point x="-46" y="393"/>
      <point x="23" y="359"/>
      <point x="71" y="359" type="curve" smooth="yes"/>
      <point x="109" y="359"/>
      <point x="138" y="368"/>
    </contour>
  </outline>
</glyph>
<glyph name="zero" format="1">
  <advance width="510"/>
  <unicode hex="0030"/>
  <outline>
    <contour>
      <point x="-111" y="499" type="curve" smooth="yes"/>
      <point x="-111" y="648"/>
      <point x="-41" y="769"/>
      <point x="114" y="769" type="curve" smooth="yes"/>
      <point x="269" y="769"/>
      <point x="339" y="648"/>
      <point x="339" y="499" type="curve" smooth="yes"/>
      <point x="339" y="350"/>
      <point x="269" y="229"/>
      <point x="114" y="229" type="curve" smooth="yes"/>
      <point x="-41" y="229"/>
      <point x="-111" y="350"/>
    </contour>
    <contour>
      <point x="34" y="499" type="curve" smooth="yes"/>
      <point x="34" y="406"/>
      <point x="62" y="354"/>
      <point x="114" y="354" type="curve" smooth="yes"/>
      <point x="166" y="354"/>
      <point x="194" y="406"/>
      <point x="194" y="499" type="curve" smooth="yes"/>
      <point x="194" y="592"/>
      <point x="166" y="644"/>
      <point x="114" y="644" type="curve" smooth="yes"/>
      <point x="62" y="644"/>
      <point x="34" y="592"/>
    </contour>
  </outline>
</glyph>
<glyph name="question" format="1">
  <advance width="464"/>
  <unicode hex="003F"/>
  <outline>
    <contour>
      <point x="26" y="453" type="line"/>
      <point x="-4" y="553" type="line"/>
      <point x="66" y="553" type="line" smooth="yes"/>
      <point x="114" y="553"/>
      <point x="123" y="578"/>
      <point x="123" y="606" type="curve" smooth="yes"/>
      <point x="123" y="629"/>
      <point x="109" y="644"/>
      <point x="81" y="644" type="curve" smooth="yes"/>
      <point x="33" y="644"/>
      <point x="-15" y="605"/>
      <point x="-55" y="567" type="curve"/>
      <point x="-95" y="677" type="line"/>
      <point x="-45" y="734"/>
      <point x="15" y="764"/>
      <point x="82" y="764" type="curve" smooth="yes"/>
      <point x="189" y="764"/>
      <point x="274" y="719"/>
      <point x="274" y="622" type="curve" smooth="yes"/>
      <point x="274" y="547"/>
      <point x="226" y="514"/>
      <point x="151" y="503" type="curve"/>
      <point x="136" y="453" type="line"/>
    </contour>
    <contour>
      <point x="84" y="221" type="line"/>
      <point x="-21" y="326" type="line"/>
      <point x="84" y="432" type="line"/>
      <point x="190" y="326" type="line"/>
    </contour>
  </outline>
</glyph>
<glyph name="B" format="1">
  <advance width="502"/>
  <unicode hex="0042"/>
  <outline>
    <contour>
      <point x="-96" y="249" type="curve"/>
      <point x="-96" y="749" type="line"/>
      <point x="-23" y="749"/>
      <point x="51" y="749"/>
      <point x="124" y="749" type="curve" smooth="yes"/>
      <point x="241" y="749"/>
      <point x="316" y="694"/>
      <point x="316" y="607" type="curve" smooth="yes"/>
      <point x="316" y="553"/>
      <point x="293" y="523"/>
      <point x="253" y="507" type="curve"/>
      <point x="306" y="486"/>
      <point x="336" y="448"/>
      <point x="336" y="392" type="curve" smooth="yes"/>
      <point x="336" y="295"/>
      <point x="261" y="249"/>
      <point x="144" y="249" type="curve" smooth="yes"/>
      <point x="64" y="249"/>
      <point x="-16" y="249"/>
    </contour>
    <contour>
      <point x="124" y="644" type="curve" smooth="yes"/>
      <point x="44" y="644" type="line"/>
      <point x="44" y="554" type="line"/>
      <point x="124" y="554" type="line" smooth="yes"/>
      <point x="152" y="554"/>
      <point x="171" y="569"/>
      <point x="171" y="597" type="curve" smooth="yes"/>
      <point x="171" y="625"/>
      <point x="152" y="644"/>
    </contour>
    <contour>
      <point x="44" y="459" type="line"/>
      <point x="44" y="359" type="line"/>
      <point x="134" y="359" type="line" smooth="yes"/>
      <point x="172" y="359"/>
      <point x="191" y="382"/>
      <point x="191" y="410" type="curve" smooth="yes"/>
      <point x="191" y="438"/>
      <point x="172" y="459"/>
      <point x="134" y="459" type="curve" smooth="yes"/>
    </contour>
  </outline>
</glyph>
<glyph name="E" format="1">
  <advance width="455"/>
  <unicode hex="0045"/>
  <outline>
    <contour>
      <point x="-96" y="249" type="curve"/>
      <point x="-96" y="749" type="line"/>
      <point x="31" y="749"/>
      <point x="157" y="749"/>
      <point x="284" y="749" type="curve"/>
      <point x="284" y="634" type="line"/>
      <point x="44" y="634" type="line"/>
      <point x="44" y="559" type="line"/>
      <point x="254" y="559" type="line"/>
      <point x="254" y="444" type="line"/>
      <point x="44" y="444" type="line"/>
      <point x="44" y="369" type="line"/>
      <point x="284" y="369" type="line"/>
      <point x="284" y="249" type="line"/>
      <point x="157" y="249"/>
      <point x="31" y="249"/>
    </contour>
  </outline>
</glyph>
<glyph name="K" format="1">
  <advance width="525"/>
  <unicode hex="004B"/>
  <outline>
    <contour>
      <point x="-96" y="249" type="line"/>
      <point x="-96" y="749" type="line"/>
      <point x="44" y="749" type="line"/>
      <point x="44" y="542" type="line"/>
      <point x="204" y="749" type="line"/>
      <point x="374" y="749" type="line"/>
      <point x="194" y="529" type="line"/>
      <point x="384" y="249" type="line"/>
      <point x="204" y="249" type="line"/>
      <point x="44" y="485" type="line"/>
      <point x="44" y="249" type="line"/>
    </contour>
  </outline>
</glyph>
<glyph name="N" format="1">
  <advance width="590"/>
  <unicode hex="004E"/>
  <outline>
    <contour>
      <point x="-96" y="249" type="line"/>
      <point x="-96" y="749" type="line"/>
      <point x="74" y="749" type="line"/>
      <point x="264" y="432" type="line"/>
      <point x="264" y="749" type="line"/>
      <point x="404" y="749" type="line"/>
      <point x="404" y="249" type="line"/>
      <point x="234" y="249" type="line"/>
      <point x="44" y="566" type="line"/>
      <point x="44" y="249" type="line"/>
    </contour>
  </outline>
</glyph>
<glyph name="O" format="1">
  <advance width="610"/>
  <unicode hex="004F"/>
  <outline>
    <contour>
      <point x="-111" y="499" type="curve" smooth="yes"/>
      <point x="-111" y="648"/>
      <point x="-11" y="769"/>
      <point x="164" y="769" type="curve" smooth="yes"/>
      <point x="339" y="769"/>
      <point x="439" y="648"/>
      <point x="439" y="499" type="curve" smooth="yes"/>
      <point x="439" y="350"/>
      <point x="339" y="229"/>
      <point x="164" y="229" type="curve" smooth="yes"/>
      <point x="-11" y="229"/>
      <point x="-111" y="350"/>
    </contour>
    <contour>
      <point x="34" y="499" type="curve" smooth="yes"/>
      <point x="34" y="406"/>
      <point x="102" y="354"/>
      <point x="164" y="354" type="curve" smooth="yes"/>
      <point x="226" y="354"/>
      <point x="294" y="406"/>
      <point x="294" y="499" type="curve" smooth="yes"/>
      <point x="294" y="592"/>
      <point x="226" y="644"/>
      <point x="164" y="644" type="curve" smooth="yes"/>
      <point x="102" y="644"/>
      <point x="34" y="592"/>
    </contour>
  </outline>
</glyph>
<glyph name="Q" format="1">
  <advance width="610"/>
  <unicode hex="0051"/>
  <outline>
    <contour>
      <point x="-111" y="499" type="curve" smooth="yes"/>
      <point x="-111" y="648"/>
      <point x="-11" y="769"/>
      <point x="164" y="769" type="curve" smooth="yes"/>
      <point x="339" y="769"/>
      <point x="439" y="648"/>
      <point x="439" y="499" type="curve" smooth="yes"/>
      <point x="439" y="383"/>
      <point x="379" y="284"/>
      <point x="270" y="246" type="curve"/>
      <point x="424" y="99" type="line"/>
      <point x="224" y="99" type="line"/>
      <point x="110" y="233" type="line"/>
      <point x="-31" y="255"/>
      <point x="-111" y="366"/>
    </contour>
    <contour>
      <point x="34" y="499" type="curve" smooth="yes"/>
      <point x="34" y="406"/>
      <point x="102" y="354"/>
      <point x="164" y="354" type="curve" smooth="yes"/>
      <point x="226" y="354"/>
      <point x="294" y="406"/>
      <point x="294" y="499" type="curve" smooth="yes"/>
      <point x="294" y="592"/>
      <point x="226" y="644"/>
      <point x="164" y="644" type="curve" smooth="yes"/>
      <point x="102" y="644"/>
      <point x="34" y="592"/>
    </contour>
  </outline>
</glyph>
<glyph name="S" format="1">
  <advance width="449"/>
  <unicode hex="0053"/>
  <outline>
    <contour>
      <point x="138" y="399" type="curve" smooth="yes"/>
      <point x="138" y="459"/>
      <point x="-95" y="462"/>
      <point x="-95" y="612" type="curve" smooth="yes"/>
      <point x="-95" y="709"/>
      <point x="-10" y="764"/>
      <point x="97" y="764" type="curve" smooth="yes"/>
      <point x="164" y="764"/>
      <point x="224" y="734"/>
      <point x="274" y="677" type="curve"/>
      <point x="234" y="567" type="line"/>
      <point x="194" y="605"/>
      <point x="146" y="644"/>
      <point x="98" y="644" type="curve" smooth="yes"/>
      <point x="70" y="644"/>
      <point x="60" y="630"/>
      <point x="60" y="612" type="curve" smooth="yes"/>
      <point x="60" y="552"/>
      <point x="283" y="545"/>
      <point x="283" y="401" type="curve" smooth="yes"/>
      <point x="283" y="274"/>
      <point x="188" y="234"/>
      <point x="81" y="234" type="curve" smooth="yes"/>
      <point x="-16" y="234"/>
      <point x="-86" y="269"/>
      <point x="-126" y="316" type="curve"/>
      <point x="-86" y="431" type="line"/>
      <point x="-46" y="393"/>
      <point x="23" y="359"/>
      <point x="71" y="359" type="curve" smooth="yes"/>
      <point x="109" y="359"/>
      <point x="138" y="368"/>
    </contour>
  </outline>
</glyph>
<glyph name="W" format="1">
  <advance width="880"/>
  <unicode hex="0057"/>
  <outline>
    <contour>
      <point x="719" y="749" type="line"/>
      <point x="529" y="249" type="line"/>
      <point x="369" y="249" type="line"/>
      <point x="301" y="444" type="line"/>
      <point x="229" y="249" type="line"/>
      <point x="69" y="249" type="line"/>
      <point x="-121" y="749" type="line"/>
      <point x="29" y="749" type="line"/>
      <point x="153" y="384" type="line"/>
      <point x="240" y="602" type="line"/>
      <point x="179" y="749" type="line"/>
      <point x="339" y="749" type="line"/>
      <point x="451" y="401" type="line"/>
      <point x="569" y="749" type="line"/>
    </contour>
  </outline>
</glyph>
<glyph name="X" format="1">
  <advance width="620"/>
  <unicode hex="0058"/>
  <outline>
    <contour>
      <point x="459" y="249" type="line"/>
      <point x="289" y="249" type="line"/>
      <point x="169" y="403" type="line"/>
      <point x="49" y="249" type="line"/>
      <point x="-121" y="249" type="line"/>
      <point x="84" y="512" type="line"/>
      <point x="-101" y="749" type="line"/>
      <point x="69" y="749" type="line"/>
      <point x="169" y="621" type="line"/>
      <point x="269" y="749" type="line"/>
      <point x="439" y="749" type="line"/>
      <point x="254" y="512" type="line"/>
    </contour>
  </outline>
</glyph>
<glyph name="Z" format="1">
  <advance width="580"/>
  <unicode hex="005A"/>
  <outline>
    <contour>
      <point x="-61" y="634" type="line"/>
      <point x="-61" y="749" type="line"/>
      <point x="429" y="749" type="line"/>
      <point x="133" y="369" type="line"/>
      <point x="389" y="369" type="line"/>
      <point x="389" y="249" type="line"/>
      <point x="-121" y="249" type="line"/>
      <point x="179" y="634" type="line"/>
    </contour>
  </outline>
</glyph>
<glyph name="d" format="1">
  <advance width="499"/>
  <unicode hex="0064"/>
  <outline>
    <contour>
      <point x="318" y="249" type="line"/>
      <point x="183" y="249" type="line"/>
      <point x="183" y="291" type="line"/>
      <point x="152" y="259"/>
      <point x="111" y="239"/>
      <point x="66" y="239" type="curve" smooth="yes"/>
      <point x="-41" y="239"/>
      <point x="-106" y="324"/>
      <point x="-106" y="441" type="curve" smooth="yes"/>
      <point x="-106" y="558"/>
      <point x="-41" y="644"/>
      <point x="66" y="644" type="curve" smooth="yes"/>
      <point x="111" y="644"/>
      <point x="152" y="626"/>
      <point x="183" y="595" type="curve"/>
      <point x="183" y="779" type="line"/>
      <point x="318" y="779" type="line"/>
    </contour>
    <contour>
      <point x="183" y="500" type="line"/>
      <point x="164" y="524"/>
      <point x="135" y="539"/>
      <point x="106" y="539" type="curve" smooth="yes"/>
      <point x="58" y="539"/>
      <point x="29" y="499"/>
      <point x="29" y="441" type="curve" smooth="yes"/>
      <point x="29" y="383"/>
      <point x="58" y="344"/>
      <point x="106" y="344" type="curve" smooth="yes"/>
      <point x="135" y="344"/>
      <point x="164" y="358"/>
      <point x="183" y="382" type="curve"/>
    </contour>
  </outline>
</glyph>
<glyph name="e" format="1">
  <advance width="469"/>
  <unicode hex="0065"/>
  <outline>
    <contour>
      <point x="-101" y="441" type="curve" smooth="yes"/>
      <point x="-101" y="568"/>
      <point x="-16" y="644"/>
      <point x="101" y="644" type="curve" smooth="yes"/>
      <point x="218" y="644"/>
      <point x="293" y="568"/>
      <point x="293" y="461" type="curve"/>
      <point x="51" y="372" type="line"/>
      <point x="67" y="352"/>
      <point x="90" y="339"/>
      <point x="121" y="339" type="curve" smooth="yes"/>
      <point x="164" y="339"/>
      <point x="191" y="363"/>
      <point x="213" y="397" type="curve"/>
      <point x="273" y="304" type="line"/>
      <point x="237" y="260"/>
      <point x="179" y="239"/>
      <point x="111" y="239" type="curve" smooth="yes"/>
      <point x="-6" y="239"/>
      <point x="-101" y="314"/>
    </contour>
    <contour>
      <point x="177" y="515" type="line"/>
      <point x="162" y="535"/>
      <point x="138" y="548"/>
      <point x="104" y="548" type="curve" smooth="yes"/>
      <point x="49" y="548"/>
      <point x="27" y="502"/>
      <point x="24" y="457" type="curve"/>
    </contour>
  </outline>
</glyph>
<glyph name="i" format="1">
  <advance width="271"/>
  <unicode hex="0069"/>
  <outline>
    <contour>
      <point x="-73" y="249" type="line"/>
      <point x="-73" y="634" type="line"/>
      <point x="62" y="634" type="line"/>
      <point x="62" y="249" type="line"/>
    </contour>
    <contour>
      <point x="-6" y="691" type="line"/>
      <point x="-101" y="786" type="line"/>
      <point x="-6" y="882" type="line"/>
      <point x="90" y="786" type="line"/>
    </contour>
  </outline>
</glyph>
<glyph name="j" format="1">
  <advance width="277"/>
  <unicode hex="006A"/>
  <outline>
    <contour>
      <point x="-67" y="634" type="line"/>
      <point x="68" y="634" type="line"/>
      <point x="68" y="153" type="line" smooth="yes"/>
      <point x="68" y="56"/>
      <point x="-17" y="1"/>
      <point x="-94" y="1" type="curve" smooth="yes"/>
      <point x="-161" y="1"/>
      <point x="-191" y="16"/>
      <point x="-241" y="63" type="curve"/>
      <point x="-201" y="163" type="line"/>
      <point x="-161" y="125"/>
      <point x="-132" y="111"/>
      <point x="-114" y="111" type="curve" smooth="yes"/>
      <point x="-86" y="111"/>
      <point x="-67" y="125"/>
      <point x="-67" y="183" type="curve" smooth="yes"/>
    </contour>
    <contour>
      <point x="0" y="691" type="line"/>
      <point x="-95" y="786" type="line"/>
      <point x="0" y="882" type="line"/>
      <point x="96" y="786" type="line"/>
    </contour>
  </outline>
</glyph>
<glyph name="k" format="1">
  <advance width="485"/>
  <unicode hex="006B"/>
  <outline>
    <contour>
      <point x="-101" y="249" type="line"/>
      <point x="-101" y="779" type="line"/>
      <point x="34" y="779" type="line"/>
      <point x="34" y="499" type="line"/>
      <point x="169" y="634" type="line"/>
      <point x="334" y="634" type="line"/>
      <point x="174" y="474" type="line"/>
      <point x="344" y="249" type="line"/>
      <point x="179" y="249" type="line"/>
      <point x="34" y="441" type="line"/>
      <point x="34" y="249" type="line"/>
    </contour>
  </outline>
</glyph>
<glyph name="l" format="1">
  <advance width="215"/>
  <unicode hex="006C"/>
  <outline>
    <contour>
      <point x="-101" y="249" type="line"/>
      <point x="-101" y="779" type="line"/>
      <point x="34" y="779" type="line"/>
      <point x="34" y="249" type="line"/>
    </contour>
  </outline>
</glyph>
<glyph name="o" format="1">
  <advance width="474"/>
  <unicode hex="006F"/>
  <outline>
    <contour>
      <point x="24" y="441" type="curve" smooth="yes"/>
      <point x="24" y="393"/>
      <point x="48" y="354"/>
      <point x="96" y="354" type="curve" smooth="yes"/>
      <point x="144" y="354"/>
      <point x="168" y="393"/>
      <point x="168" y="441" type="curve" smooth="yes"/>
      <point x="168" y="489"/>
      <point x="144" y="529"/>
      <point x="96" y="529" type="curve" smooth="yes"/>
      <point x="48" y="529"/>
      <point x="24" y="489"/>
    </contour>
    <contour>
      <point x="-106" y="441" type="curve" smooth="yes"/>
      <point x="-106" y="568"/>
      <point x="-21" y="644"/>
      <point x="96" y="644" type="curve" smooth="yes"/>
      <point x="213" y="644"/>
      <point x="298" y="568"/>
      <point x="298" y="441" type="curve" smooth="yes"/>
      <point x="298" y="314"/>
      <point x="213" y="239"/>
      <point x="96" y="239" type="curve" smooth="yes"/>
      <point x="-21" y="239"/>
      <point x="-106" y="324"/>
    </contour>
  </outline>
</glyph>
<glyph name="s" format="1">
  <advance width="374"/>
  <unicode hex="0073"/>
  <outline>
    <contour>
      <point x="73" y="361" type="curve" smooth="yes"/>
      <point x="73" y="411"/>
      <point x="-95" y="407"/>
      <point x="-95" y="527" type="curve" smooth="yes"/>
      <point x="-95" y="624"/>
      <point x="-20" y="649"/>
      <point x="57" y="649" type="curve" smooth="yes"/>
      <point x="94" y="649"/>
      <point x="144" y="634"/>
      <point x="194" y="587" type="curve"/>
      <point x="154" y="497" type="line"/>
      <point x="114" y="535"/>
      <point x="86" y="549"/>
      <point x="68" y="549" type="curve" smooth="yes"/>
      <point x="50" y="549"/>
      <point x="40" y="540"/>
      <point x="40" y="527" type="curve" smooth="yes"/>
      <point x="40" y="477"/>
      <point x="208" y="475"/>
      <point x="208" y="371" type="curve" smooth="yes"/>
      <point x="208" y="274"/>
      <point x="123" y="234"/>
      <point x="46" y="234" type="curve" smooth="yes"/>
      <point x="-21" y="234"/>
      <point x="-71" y="249"/>
      <point x="-121" y="296" type="curve"/>
      <point x="-81" y="386" type="line"/>
      <point x="-41" y="348"/>
      <point x="8" y="334"/>
      <point x="26" y="334" type="curve" smooth="yes"/>
      <point x="54" y="334"/>
      <point x="73" y="340"/>
    </contour>
  </outline>
</glyph>
<glyph name="u" format="1">
  <advance width="474"/>
  <unicode hex="0075"/>
  <outline>
    <contour>
      <point x="293" y="634" type="line"/>
      <point x="293" y="249" type="line"/>
      <point x="158" y="249" type="line"/>
      <point x="158" y="321" type="line"/>
      <point x="125" y="271"/>
      <point x="76" y="239"/>
      <point x="31" y="239" type="curve" smooth="yes"/>
      <point x="-56" y="239"/>
      <point x="-101" y="295"/>
      <point x="-101" y="392" type="curve" smooth="yes"/>
      <point x="-101" y="634" type="line"/>
      <point x="34" y="634" type="line"/>
      <point x="34" y="422" type="line" smooth="yes"/>
      <point x="34" y="364"/>
      <point x="53" y="344"/>
      <point x="81" y="344" type="curve" smooth="yes"/>
      <point x="110" y="344"/>
      <point x="139" y="366"/>
      <point x="158" y="394" type="curve"/>
      <point x="158" y="634" type="line"/>
    </contour>
  </outline>
</glyph>
<glyph name="v" format="1">
  <advance width="465"/>
  <unicode hex="0076"/>
  <outline>
    <contour>
      <point x="19" y="249" type="line"/>
      <point x="-131" y="634" type="line"/>
      <point x="14" y="634" type="line"/>
      <point x="95" y="350" type="line"/>
      <point x="169" y="634" type="line"/>
      <point x="314" y="634" type="line"/>
      <point x="174" y="249" type="line"/>
    </contour>
  </outline>
</glyph>
<glyph name="quotedblright" format="1">
  <advance width="430"/>
  <unicode hex="201D"/>
  <outline>
    <contour>
      <point x="114" y="489" type="line"/>
      <point x="114" y="749" type="line"/>
      <point x="244" y="749" type="line"/>
      <point x="244" y="609" type="line"/>
    </contour>
    <contour>
      <point x="-96" y="489" type="line"/>
      <point x="-96" y="749" type="line"/>
      <point x="34" y="749" type="line"/>
      <point x="34" y="609" type="line"/>
    </contour>
  </outline>
</glyph>
